<svg width="194" height="80" viewBox="0 0 194 80" fill="none" xmlns="http://www.w3.org/2000/svg">
<path d="M58.4751 0V14.2188C57.3713 13.1168 54.4916 10.1734 48.487 10.1734C39.8498 10.1734 31.6399 16.7307 31.6399 28.2533C31.6399 38.4874 38.3796 46.4547 48.6713 46.4547C55.5325 46.4547 57.985 43.0838 58.9651 41.6739V45.3527H68.6453V0H58.4751ZM58.207 27.7945C58.1986 27.8091 58.1902 27.8259 58.1819 27.8385C58.2091 28.1297 58.2237 28.423 58.2237 28.7163C58.2237 33.2394 54.9084 37.6054 49.241 37.6054C43.5736 37.6054 40.2603 33.2394 40.2603 28.7163V28.6849C40.2603 28.3936 40.275 28.1024 40.3022 27.8133L40.2917 27.7945C38.899 25.2113 38.7587 22.0081 40.1975 19.1966C40.3839 18.832 40.5912 18.4822 40.8195 18.1553C40.9515 19.7936 41.519 21.3775 42.4678 22.7308C42.5599 22.624 42.6563 22.5192 42.7547 22.4166C44.2878 20.8328 46.4869 19.7936 49.241 19.7936C52.1794 19.7936 54.4832 20.9752 56.0226 22.7434C56.9755 21.3879 57.5473 19.7999 57.6792 18.1553C57.9075 18.4822 58.1148 18.832 58.3012 19.1966C59.7401 22.0081 59.5997 25.2113 58.207 27.7945Z" fill="#FF0037"/>
<path d="M108.039 45.3528H97.8683V41.676C96.0294 44.9861 91.803 46.5176 87.8195 46.5176C77.0377 46.5176 70.7252 38.06 70.7252 28.3162C70.7252 17.1623 78.7509 10.1755 87.8195 10.1755C93.3947 10.1755 96.5195 12.8718 97.8683 14.9563V11.3403H108.039V45.3528ZM80.8976 28.4984C80.8976 31.6242 83.2265 37.0167 89.3526 37.0167C92.9674 37.0167 95.1728 35.3009 96.4588 33.2164C97.3175 31.8672 97.7447 30.3965 97.8683 28.865C97.9897 27.3336 97.684 25.8 97.0096 24.3922C95.9058 22.0626 93.579 19.6721 89.2897 19.6721C83.4695 19.6721 80.8955 24.5745 80.8955 28.4356V28.4963L80.8976 28.4984Z" fill="#FF0037"/>
<path d="M110.02 11.3381H120.05V15.1385C121.03 13.2991 122.806 10.1733 128.689 10.1733V20.4074H128.321C123.114 20.4074 120.662 22.3076 120.662 27.0884V45.3506H110.02V11.3381Z" fill="#FF0037"/>
<path d="M137.754 31.8693C138.183 35.4852 141.614 37.8757 145.595 37.8757C148.841 37.8757 150.559 36.4657 151.784 34.6891H162.199C160.545 38.4895 158.155 41.4309 155.275 43.3918C152.456 45.4135 149.086 46.4568 145.595 46.4568C135.854 46.4568 127.583 38.5502 127.583 28.4397C127.583 18.941 135.058 10.1776 145.413 10.1776C150.619 10.1776 155.093 12.1992 158.278 15.5701C162.568 20.1665 163.854 25.622 163.058 31.8714H137.756L137.754 31.8693ZM153.07 24.1471C152.825 22.5528 150.741 18.7545 145.473 18.7545C140.206 18.7545 138.122 22.5549 137.877 24.1471H153.072H153.07Z" fill="#FF0037"/>
<path d="M11.3497 50.2781C13.4336 48.1328 16.3113 46.8465 19.744 46.8465C23.4196 46.8465 26.4229 48.2564 28.5047 50.7684C30.8944 48.4387 34.2642 46.8465 38.675 46.8465C46.5163 46.8465 51.1114 52.0568 51.1114 59.6554V79.206H40.3274V61.9243C40.3274 58.9221 38.9787 56.7768 36.101 56.7768C33.2233 56.7768 31.3217 58.9221 31.3217 62.5989V79.2081H20.5398V61.9264C20.5398 58.9242 19.1911 56.7789 16.3113 56.7789C13.4315 56.7789 11.5319 58.9242 11.5319 62.601V79.2102H0.750122V47.4645H11.3497V50.2844V50.2781Z" fill="#FF0037"/>
<path d="M75.7412 77.0586C73.4751 78.5293 70.7797 79.3882 67.8999 79.3882C59.3234 79.3882 52.2151 72.4621 52.2151 63.2692C52.2151 54.0763 59.3214 47.2131 67.8999 47.2131C70.7797 47.2131 73.4751 48.07 75.7412 49.5428V47.5211H86.5251V79.206H75.7412V77.0607V77.0586ZM62.8127 63.4536C62.8127 67.1303 65.8139 70.0717 69.3681 70.0717C72.9222 70.0717 75.8627 67.1303 75.8627 63.4536C75.8627 59.7769 72.9829 56.8355 69.3681 56.8355C65.7532 56.8355 62.8127 59.7161 62.8127 63.4536Z" fill="#FF0037"/>
<path d="M107.599 57.8159C101.228 57.8159 99.0223 60.8809 99.0223 65.7832V79.2038H88.2383V47.4582H98.9594V51.1957C98.9594 51.1957 101.778 47.0287 107.599 47.0287V57.8159Z" fill="#FF0037"/>
<path d="M120.833 67.0088V79.2039H109.988V37.2241H120.833V60.8181L129.472 47.4582H142.216L130.697 63.33L142.399 79.2039H129.104L120.833 67.0088Z" fill="#FF0037"/>
<path d="M155.815 80C145.951 80 138.476 73.0132 138.476 63.3301C138.476 53.6469 146.011 46.7208 155.507 46.7208C165.003 46.7208 171.437 53.7684 171.437 63.0849C171.437 63.2693 171.437 65.9048 171.376 66.4558H149.015C150.118 69.3972 152.69 71.2366 155.876 71.2366C159.061 71.2366 161.33 69.7659 162.861 67.8657L170.151 72.8917C167.577 76.6292 162.8 80 155.815 80ZM149.199 59.2238H160.9C159.859 56.2217 157.409 55.2412 155.264 55.2412C152.263 55.2412 150.24 56.7727 149.199 59.2238Z" fill="#FF0037"/>
<path d="M193.25 47.4582V57.0806H186.081V66.395C186.081 69.0305 187.122 70.1325 189.511 70.1325H193.248V79.2018H187.183C178.788 79.2018 175.297 75.6465 175.297 67.8028V57.0785H170.826V47.4561H175.297V39.6732H186.079V47.4561H193.248L193.25 47.4582Z" fill="#FF0037"/>
</svg>
